<?xml version="1.0" encoding="UTF-8" standalone="no"?><svg xmlns="http://www.w3.org/2000/svg" xmlns:xlink="http://www.w3.org/1999/xlink" data-name="Layer 1" fill="#000000" height="846.1" preserveAspectRatio="xMidYMid meet" version="1" viewBox="-0.1 2153.9 3000.1 846.1" width="3000.1" zoomAndPan="magnify"><defs><linearGradient gradientUnits="userSpaceOnUse" id="a" x1="279" x2="3000.03" xlink:actuate="onLoad" xlink:show="other" xlink:type="simple" y1="2681.84" y2="2681.84"><stop offset="0" stop-opacity="0"/><stop offset="1" stop-opacity="0.5"/></linearGradient></defs><g id="change1_1"><path d="M.05,2417c274.46-77.66,571.38-42.61,844.6,22.91,693,166.21,1641.11,362.46,2155.38-286V2884H0S-.12,2417,.05,2417Z" fill="#f9a720"/></g><g id="change2_1"><path d="M0,2490c265-75,621.42-34.54,781.48,12.05,206.47,60.11,409.66,136.9,618.45,184.86,307.52,70.63,622.19,105.45,934.53,45.85,129.25-24.67,253.6-70.12,373.19-125,193.32-88.74,288-238.57,292.35-244V3000H0S-.12,2490,0,2490Z" fill="#f9db28"/></g><path d="M3000,2363.68V3000H279V2449.64c198-7.56,394.74,21,502.51,52.39,206.47,60.11,409.66,136.9,618.45,184.86,307.52,70.63,622.19,105.45,934.53,45.85,129.25-24.67,253.6-70.12,373.19-125C2901,2519,2995.7,2369.15,3000,2363.68Z" fill="url(#a)"/></svg>