<?xml version="1.0" encoding="UTF-8"?><svg xmlns="http://www.w3.org/2000/svg" xmlns:xlink="http://www.w3.org/1999/xlink" height="495.8" preserveAspectRatio="xMidYMid meet" version="1.0" viewBox="231.9 502.1 2236.3 495.8" width="2236.3" zoomAndPan="magnify"><g><g><path d="M 867.730469 863.15625 L 867.730469 872.0625 L 785.847656 872.0625 L 785.847656 863.15625 L 774.652344 863.15625 L 774.652344 884.65625 L 785.847656 884.65625 L 785.847656 876.265625 L 867.730469 876.265625 L 867.730469 884.65625 L 878.925781 884.65625 L 878.925781 863.15625 L 867.730469 863.15625" fill="#21385e"/></g><g><path d="M 1430.441406 863.15625 L 1430.441406 872.0625 L 1348.558594 872.0625 L 1348.558594 863.15625 L 1337.371094 863.15625 L 1337.371094 884.65625 L 1348.558594 884.65625 L 1348.558594 876.265625 L 1430.441406 876.265625 L 1430.441406 884.65625 L 1441.640625 884.65625 L 1441.640625 863.15625 L 1430.441406 863.15625" fill="#21385e"/></g><g><path d="M 1992.703125 863.15625 L 1992.703125 872.0625 L 1910.8125 872.0625 L 1910.8125 863.15625 L 1899.613281 863.15625 L 1899.613281 884.660156 L 1910.8125 884.660156 L 1910.8125 876.265625 L 1992.703125 876.265625 L 1992.703125 884.660156 L 2003.890625 884.660156 L 2003.890625 863.15625 L 1992.703125 863.15625" fill="#21385e"/></g><g><path d="M 799.863281 524.746094 C 777.636719 502.519531 665.835938 502.105469 631.203125 502.105469 C 596.574219 502.105469 484.773438 502.519531 462.546875 524.746094 C 451.125 536.167969 454.472656 551.324219 460.429688 563.363281 C 466.242188 575.117188 479.472656 581.234375 492.195312 578.054688 C 515.835938 572.144531 562.429688 563.398438 631.203125 563.398438 C 699.976562 563.398438 746.570312 572.144531 770.214844 578.054688 C 782.933594 581.234375 796.167969 575.117188 801.980469 563.363281 C 807.9375 551.324219 811.285156 536.167969 799.863281 524.746094" fill="#db0706"/></g><g><path d="M 669.832031 757.84375 C 726.011719 757.84375 752.191406 763.394531 764.398438 769.855469 C 764.398438 709.335938 764.398438 594.960938 764.398438 580.65625 C 739.332031 574.859375 694.742188 567.394531 631.203125 567.394531 C 567.664062 567.394531 523.074219 574.859375 498.007812 580.65625 C 498.007812 598.285156 498.007812 767.890625 498.007812 801.371094 C 541.792969 782.957031 602.324219 757.84375 669.832031 757.84375" fill="#9102b2"/></g><g><path d="M 494.011719 801.371094 C 494.011719 777.960938 494.011719 688 494.011719 629.972656 L 263.003906 629.972656 C 263.003906 629.972656 231.859375 652.617188 231.859375 725.207031 C 231.859375 800.464844 263.003906 820.441406 263.003906 820.441406 L 438.199219 820.441406 C 450.386719 820.441406 462.746094 814.371094 494.011719 801.371094" fill="#fa8c01"/></g><g><path d="M 392.984375 523.472656 L 308.566406 523.472656 C 304.246094 523.472656 300.710938 526.285156 300.710938 529.722656 L 300.710938 533.890625 C 300.710938 537.328125 304.246094 540.140625 308.566406 540.140625 L 313.40625 540.140625 L 328.097656 625.976562 L 375.4375 625.976562 L 390.128906 540.140625 L 392.984375 540.140625 C 397.304688 540.140625 400.839844 537.328125 400.839844 533.890625 L 400.839844 529.722656 C 400.839844 526.285156 397.304688 523.472656 392.984375 523.472656" fill="#ffc32d"/></g><g><path d="M 775.058594 912.070312 L 775.054688 790.058594 C 775.054688 781.816406 776.386719 761.835938 669.832031 761.835938 C 563.273438 761.835938 474.03125 824.4375 440.734375 824.4375 C 407.433594 824.4375 260.917969 824.4375 260.917969 824.4375 L 260.917969 912.070312 L 272.851562 912.070312 C 280.183594 881.605469 307.59375 858.964844 340.308594 858.964844 C 373.023438 858.964844 400.433594 881.605469 407.761719 912.070312 L 416.0625 912.070312 C 423.445312 881.675781 450.820312 859.101562 483.488281 859.101562 C 516.148438 859.101562 543.523438 881.671875 550.90625 912.0625 C 556.9375 912.015625 580.058594 911.832031 589 911.6875 C 588.976562 910.84375 588.960938 909.996094 588.960938 909.144531 C 588.960938 860.15625 628.675781 820.441406 677.664062 820.441406 C 726.652344 820.441406 766.363281 860.15625 766.363281 909.144531 C 766.363281 910.027344 766.347656 910.910156 766.320312 911.785156 C 769.820312 911.929688 775.058594 912.070312 775.058594 912.070312" fill="#9bba16"/></g><g><path d="M 552.925781 928.496094 C 552.925781 966.824219 521.855469 997.894531 483.53125 997.894531 C 445.203125 997.894531 414.132812 966.824219 414.132812 928.496094 C 414.132812 890.171875 445.203125 859.101562 483.53125 859.101562 C 521.855469 859.101562 552.925781 890.171875 552.925781 928.496094" fill="#21385e"/></g><g><path d="M 544.761719 928.496094 C 544.761719 962.316406 517.347656 989.730469 483.53125 989.730469 C 449.710938 989.730469 422.296875 962.316406 422.296875 928.496094 C 422.296875 894.679688 449.710938 867.265625 483.53125 867.265625 C 517.347656 867.265625 544.761719 894.679688 544.761719 928.496094" fill="#33517c"/></g><g><path d="M 483.53125 961.144531 C 465.527344 961.144531 450.882812 946.5 450.882812 928.5 C 450.882812 910.496094 465.527344 895.851562 483.53125 895.851562 C 501.53125 895.851562 516.175781 910.496094 516.175781 928.5 C 516.175781 946.5 501.53125 961.144531 483.53125 961.144531" fill="#bababa"/></g><g><path d="M 483.53125 951.519531 C 470.835938 951.519531 460.507812 941.191406 460.507812 928.5 C 460.507812 915.804688 470.835938 905.476562 483.53125 905.476562 C 496.222656 905.476562 506.550781 915.804688 506.550781 928.5 C 506.550781 941.191406 496.222656 951.519531 483.53125 951.519531" fill="#21385e"/></g><g><path d="M 409.703125 928.359375 C 409.703125 966.6875 378.632812 997.757812 340.308594 997.757812 C 301.980469 997.757812 270.910156 966.6875 270.910156 928.359375 C 270.910156 890.03125 301.980469 858.964844 340.308594 858.964844 C 378.632812 858.964844 409.703125 890.03125 409.703125 928.359375" fill="#21385e"/></g><g><path d="M 401.539062 928.359375 C 401.539062 962.175781 374.125 989.59375 340.308594 989.59375 C 306.488281 989.59375 279.074219 962.175781 279.074219 928.359375 C 279.074219 894.542969 306.488281 867.128906 340.308594 867.128906 C 374.125 867.128906 401.539062 894.542969 401.539062 928.359375" fill="#33517c"/></g><g><path d="M 340.308594 961.007812 C 322.304688 961.007812 307.660156 946.363281 307.660156 928.359375 C 307.660156 910.359375 322.304688 895.710938 340.308594 895.710938 C 358.308594 895.710938 372.953125 910.359375 372.953125 928.359375 C 372.953125 946.363281 358.308594 961.007812 340.308594 961.007812" fill="#bababa"/></g><g><path d="M 340.308594 951.382812 C 327.613281 951.382812 317.285156 941.054688 317.285156 928.359375 C 317.285156 915.664062 327.613281 905.339844 340.308594 905.339844 C 353 905.339844 363.328125 915.664062 363.328125 928.359375 C 363.328125 941.054688 353 951.382812 340.308594 951.382812" fill="#21385e"/></g><g><path d="M 766.363281 909.144531 C 766.363281 958.132812 726.652344 997.84375 677.664062 997.84375 C 628.675781 997.84375 588.960938 958.132812 588.960938 909.144531 C 588.960938 860.15625 628.675781 820.441406 677.664062 820.441406 C 726.652344 820.441406 766.363281 860.15625 766.363281 909.144531" fill="#21385e"/></g><g><path d="M 755.925781 909.144531 C 755.925781 952.367188 720.886719 987.40625 677.664062 987.40625 C 634.4375 987.40625 599.398438 952.367188 599.398438 909.144531 C 599.398438 865.921875 634.4375 830.878906 677.664062 830.878906 C 720.886719 830.878906 755.925781 865.921875 755.925781 909.144531" fill="#33517c"/></g><g><path d="M 677.660156 950.871094 C 654.652344 950.871094 635.933594 932.152344 635.933594 909.144531 C 635.933594 886.136719 654.652344 867.414062 677.660156 867.414062 C 700.671875 867.414062 719.390625 886.136719 719.390625 909.144531 C 719.390625 932.152344 700.671875 950.871094 677.660156 950.871094" fill="#bababa"/></g><g><path d="M 677.664062 941.816406 C 659.648438 941.816406 644.992188 927.160156 644.992188 909.144531 C 644.992188 891.128906 659.648438 876.472656 677.664062 876.472656 C 695.679688 876.472656 710.335938 891.128906 710.335938 909.144531 C 710.335938 927.160156 695.679688 941.816406 677.664062 941.816406" fill="#21385e"/></g><g><path d="M 585.363281 934.457031 L 340.363281 934.457031 C 337.078125 934.457031 334.40625 931.78125 334.40625 928.496094 C 334.40625 925.214844 337.078125 922.539062 340.363281 922.539062 L 584.378906 922.539062 L 676.847656 905.730469 C 678.40625 905.441406 679.988281 905.785156 681.300781 906.691406 C 682.609375 907.597656 683.488281 908.960938 683.773438 910.523438 C 684.359375 913.757812 682.207031 916.867188 678.976562 917.453125 L 585.363281 934.457031" fill="#939393"/></g><g><path d="M 569.53125 595.15625 C 564.777344 595.15625 560.910156 599.113281 560.910156 603.976562 L 560.910156 701.90625 C 560.910156 706.765625 564.777344 710.722656 569.53125 710.722656 L 692.878906 710.722656 C 697.628906 710.722656 701.496094 706.765625 701.496094 701.90625 L 701.496094 603.976562 C 701.496094 599.113281 697.628906 595.15625 692.878906 595.15625 Z M 692.878906 712.730469 L 569.53125 712.730469 C 563.671875 712.730469 558.902344 707.871094 558.902344 701.90625 L 558.902344 603.976562 C 558.902344 598.007812 563.671875 593.152344 569.53125 593.152344 L 692.878906 593.152344 C 698.738281 593.152344 703.503906 598.007812 703.503906 603.976562 L 703.503906 701.90625 C 703.503906 707.871094 698.738281 712.730469 692.878906 712.730469" fill="#dbf8fe"/></g><g><path d="M 687.164062 705.210938 L 575.246094 705.210938 C 570.441406 705.210938 566.511719 701.28125 566.511719 696.476562 L 566.511719 609.402344 C 566.511719 604.597656 570.441406 600.667969 575.246094 600.667969 L 687.164062 600.667969 C 691.96875 600.667969 695.894531 604.597656 695.894531 609.402344 L 695.894531 696.476562 C 695.894531 701.28125 691.96875 705.210938 687.164062 705.210938" fill="#dbf8fe"/></g><g><path d="M 566.511719 675.757812 L 626.585938 600.667969 L 613.734375 600.667969 L 566.511719 659.691406 L 566.511719 675.757812" fill="#8fd8cf"/></g><g><path d="M 646.253906 600.667969 L 567.101562 699.601562 C 568.367188 702.871094 571.542969 705.210938 575.246094 705.210938 L 575.464844 705.210938 L 659.105469 600.667969 L 646.253906 600.667969" fill="#8fd8cf"/></g><g><path d="M 661.660156 705.210938 L 695.894531 662.421875 L 695.894531 646.355469 L 648.808594 705.210938 L 661.660156 705.210938" fill="#8fd8cf"/></g><g><path d="M 1312.109375 570.699219 L 904.132812 570.699219 C 895.976562 570.699219 888.769531 576.019531 886.371094 583.816406 L 873.398438 625.976562 L 1342.839844 625.976562 L 1329.871094 583.816406 C 1327.46875 576.019531 1320.269531 570.699219 1312.109375 570.699219" fill="#ffc32d"/></g><g><path d="M 1322.328125 846.078125 L 893.910156 846.078125 C 885.636719 846.078125 878.925781 852.785156 878.925781 861.0625 L 878.925781 887.222656 C 878.925781 895.496094 885.636719 902.207031 893.910156 902.207031 L 913.160156 902.207031 C 923.523438 876.921875 948.367188 859.101562 977.386719 859.101562 C 1006.410156 859.101562 1031.25 876.921875 1041.609375 902.207031 L 1174.628906 902.207031 C 1184.988281 876.921875 1209.828125 859.101562 1238.851562 859.101562 C 1267.871094 859.101562 1292.71875 876.921875 1303.078125 902.207031 L 1322.328125 902.207031 C 1330.601562 902.207031 1337.308594 895.496094 1337.308594 887.222656 L 1337.308594 861.0625 C 1337.308594 852.785156 1330.601562 846.078125 1322.328125 846.078125" fill="#9bba16"/></g><g><path d="M 1308.269531 928.496094 C 1308.269531 966.824219 1277.199219 997.894531 1238.878906 997.894531 C 1200.550781 997.894531 1169.480469 966.824219 1169.480469 928.496094 C 1169.480469 890.171875 1200.550781 859.101562 1238.878906 859.101562 C 1277.199219 859.101562 1308.269531 890.171875 1308.269531 928.496094" fill="#21385e"/></g><g><path d="M 1300.109375 928.496094 C 1300.109375 962.316406 1272.691406 989.730469 1238.878906 989.730469 C 1205.058594 989.730469 1177.640625 962.316406 1177.640625 928.496094 C 1177.640625 894.679688 1205.058594 867.265625 1238.878906 867.265625 C 1272.691406 867.265625 1300.109375 894.679688 1300.109375 928.496094" fill="#33517c"/></g><g><path d="M 1238.871094 961.144531 C 1220.871094 961.144531 1206.230469 946.5 1206.230469 928.5 C 1206.230469 910.496094 1220.871094 895.851562 1238.871094 895.851562 C 1256.878906 895.851562 1271.519531 910.496094 1271.519531 928.5 C 1271.519531 946.5 1256.878906 961.144531 1238.871094 961.144531" fill="#bababa"/></g><g><path d="M 1238.871094 951.519531 C 1226.179688 951.519531 1215.851562 941.191406 1215.851562 928.496094 C 1215.851562 915.804688 1226.179688 905.476562 1238.871094 905.476562 C 1251.570312 905.476562 1261.898438 915.804688 1261.898438 928.496094 C 1261.898438 941.191406 1251.570312 951.519531 1238.871094 951.519531" fill="#21385e"/></g><g><path d="M 1046.789062 928.496094 C 1046.789062 966.824219 1015.71875 997.894531 977.394531 997.894531 C 939.066406 997.894531 908 966.824219 908 928.496094 C 908 890.171875 939.066406 859.101562 977.394531 859.101562 C 1015.71875 859.101562 1046.789062 890.171875 1046.789062 928.496094" fill="#21385e"/></g><g><path d="M 1038.628906 928.496094 C 1038.628906 962.316406 1011.210938 989.730469 977.394531 989.730469 C 943.578125 989.730469 916.164062 962.316406 916.164062 928.496094 C 916.164062 894.679688 943.578125 867.265625 977.394531 867.265625 C 1011.210938 867.265625 1038.628906 894.679688 1038.628906 928.496094" fill="#33517c"/></g><g><path d="M 977.394531 961.144531 C 959.394531 961.144531 944.746094 946.5 944.746094 928.5 C 944.746094 910.496094 959.394531 895.851562 977.394531 895.851562 C 995.394531 895.851562 1010.039062 910.496094 1010.039062 928.5 C 1010.039062 946.5 995.394531 961.144531 977.394531 961.144531" fill="#bababa"/></g><g><path d="M 977.394531 951.519531 C 964.699219 951.519531 954.375 941.191406 954.375 928.5 C 954.375 915.804688 964.699219 905.476562 977.394531 905.476562 C 990.089844 905.476562 1000.421875 915.804688 1000.421875 928.5 C 1000.421875 941.191406 990.089844 951.519531 977.394531 951.519531" fill="#21385e"/></g><g><path d="M 1320.730469 629.972656 L 900.613281 629.972656 L 900.613281 841.730469 L 1320.730469 841.730469 L 1320.730469 629.972656" fill="#39c9eb"/></g><g><path d="M 900.613281 665.230469 L 935.867188 629.972656 L 928.449219 629.972656 L 900.613281 657.808594 L 900.613281 665.230469" fill="#11a6bf"/></g><g><path d="M 900.613281 707.304688 L 977.941406 629.972656 L 970.519531 629.972656 L 900.613281 699.882812 L 900.613281 707.304688" fill="#11a6bf"/></g><g><path d="M 900.613281 749.375 L 1020.011719 629.972656 L 1012.589844 629.972656 L 900.613281 741.953125 L 900.613281 749.375" fill="#11a6bf"/></g><g><path d="M 900.613281 791.445312 L 1062.089844 629.972656 L 1054.671875 629.972656 L 900.613281 784.027344 L 900.613281 791.445312" fill="#11a6bf"/></g><g><path d="M 900.613281 833.519531 L 1104.160156 629.972656 L 1096.738281 629.972656 L 900.613281 826.097656 L 900.613281 833.519531" fill="#11a6bf"/></g><g><path d="M 934.472656 841.730469 L 1146.230469 629.972656 L 1138.808594 629.972656 L 927.050781 841.730469 L 934.472656 841.730469" fill="#11a6bf"/></g><g><path d="M 976.542969 841.730469 L 1188.300781 629.972656 L 1180.878906 629.972656 L 969.121094 841.730469 L 976.542969 841.730469" fill="#11a6bf"/></g><g><path d="M 1018.621094 841.730469 L 1230.378906 629.972656 L 1222.949219 629.972656 L 1011.199219 841.730469 L 1018.621094 841.730469" fill="#11a6bf"/></g><g><path d="M 1061.289062 841.730469 L 1273.050781 629.972656 L 1265.628906 629.972656 L 1053.871094 841.730469 L 1061.289062 841.730469" fill="#11a6bf"/></g><g><path d="M 1103.359375 841.730469 L 1315.121094 629.972656 L 1307.699219 629.972656 L 1095.941406 841.730469 L 1103.359375 841.730469" fill="#11a6bf"/></g><g><path d="M 1145.429688 841.730469 L 1320.730469 666.433594 L 1320.730469 659.015625 L 1138.011719 841.730469 L 1145.429688 841.730469" fill="#11a6bf"/></g><g><path d="M 1187.5 841.730469 L 1320.730469 708.507812 L 1320.730469 701.085938 L 1180.078125 841.730469 L 1187.5 841.730469" fill="#11a6bf"/></g><g><path d="M 1229.578125 841.730469 L 1320.730469 750.578125 L 1320.730469 743.160156 L 1222.160156 841.730469 L 1229.578125 841.730469" fill="#11a6bf"/></g><g><path d="M 1313.71875 841.730469 L 1320.730469 834.722656 L 1320.730469 827.304688 L 1306.300781 841.730469 L 1313.71875 841.730469" fill="#11a6bf"/></g><g><path d="M 1271.648438 841.730469 L 1320.730469 792.652344 L 1320.730469 785.230469 L 1264.230469 841.730469 L 1271.648438 841.730469" fill="#11a6bf"/></g><g><path d="M 968.652344 748.914062 L 925.785156 748.914062 C 919.652344 748.914062 914.632812 744.097656 914.632812 738.207031 L 914.632812 648.089844 C 914.632812 642.203125 919.652344 637.386719 925.785156 637.386719 L 968.652344 637.386719 C 974.785156 637.386719 979.804688 642.203125 979.804688 648.089844 L 979.804688 738.207031 C 979.804688 744.097656 974.785156 748.914062 968.652344 748.914062" fill="#39c9eb"/></g><g><path d="M 925.785156 638.386719 C 920.1875 638.386719 915.636719 642.738281 915.636719 648.089844 L 915.636719 738.207031 C 915.636719 743.558594 920.1875 747.910156 925.785156 747.910156 L 968.652344 747.910156 C 974.246094 747.910156 978.800781 743.558594 978.800781 738.207031 L 978.800781 648.089844 C 978.800781 642.738281 974.246094 638.386719 968.652344 638.386719 Z M 968.652344 749.914062 L 925.785156 749.914062 C 919.082031 749.914062 913.628906 744.664062 913.628906 738.207031 L 913.628906 648.089844 C 913.628906 641.632812 919.082031 636.382812 925.785156 636.382812 L 968.652344 636.382812 C 975.355469 636.382812 980.808594 641.632812 980.808594 648.089844 L 980.808594 738.207031 C 980.808594 744.664062 975.355469 749.914062 968.652344 749.914062" fill="#dbf8fe"/></g><g><path d="M 964.609375 742.230469 L 929.824219 742.230469 C 924.847656 742.230469 920.777344 737.988281 920.777344 732.808594 L 920.777344 653.488281 C 920.777344 648.308594 924.847656 644.066406 929.824219 644.066406 L 964.609375 644.066406 C 969.585938 644.066406 973.660156 648.308594 973.660156 653.488281 L 973.660156 732.808594 C 973.660156 737.988281 969.585938 742.230469 964.609375 742.230469" fill="#dbf8fe"/></g><g><path d="M 920.777344 675.816406 L 920.777344 691.878906 L 959.027344 644.066406 L 946.179688 644.066406 L 920.777344 675.816406" fill="#8fd8cf"/></g><g><path d="M 920.777344 732.527344 L 973.660156 666.429688 L 973.660156 653.488281 C 973.660156 652.566406 973.523438 651.675781 973.285156 650.832031 L 920.777344 716.460938 L 920.777344 732.527344" fill="#8fd8cf"/></g><g><path d="M 1295.558594 748.914062 L 1252.691406 748.914062 C 1246.558594 748.914062 1241.539062 744.097656 1241.539062 738.207031 L 1241.539062 648.089844 C 1241.539062 642.203125 1246.558594 637.386719 1252.691406 637.386719 L 1295.558594 637.386719 C 1301.691406 637.386719 1306.710938 642.203125 1306.710938 648.089844 L 1306.710938 738.207031 C 1306.710938 744.097656 1301.691406 748.914062 1295.558594 748.914062" fill="#39c9eb"/></g><g><path d="M 1252.691406 638.386719 C 1247.089844 638.386719 1242.539062 642.738281 1242.539062 648.089844 L 1242.539062 738.207031 C 1242.539062 743.558594 1247.089844 747.910156 1252.691406 747.910156 L 1295.558594 747.910156 C 1301.148438 747.910156 1305.710938 743.558594 1305.710938 738.207031 L 1305.710938 648.089844 C 1305.710938 642.738281 1301.148438 638.386719 1295.558594 638.386719 Z M 1295.558594 749.914062 L 1252.691406 749.914062 C 1245.988281 749.914062 1240.53125 744.664062 1240.53125 738.207031 L 1240.53125 648.089844 C 1240.53125 641.632812 1245.988281 636.382812 1252.691406 636.382812 L 1295.558594 636.382812 C 1302.261719 636.382812 1307.710938 641.632812 1307.710938 648.089844 L 1307.710938 738.207031 C 1307.710938 744.664062 1302.261719 749.914062 1295.558594 749.914062" fill="#dbf8fe"/></g><g><path d="M 1291.511719 742.230469 L 1256.730469 742.230469 C 1251.75 742.230469 1247.679688 737.988281 1247.679688 732.808594 L 1247.679688 653.488281 C 1247.679688 648.308594 1251.75 644.066406 1256.730469 644.066406 L 1291.511719 644.066406 C 1296.488281 644.066406 1300.558594 648.308594 1300.558594 653.488281 L 1300.558594 732.808594 C 1300.558594 737.988281 1296.488281 742.230469 1291.511719 742.230469" fill="#dbf8fe"/></g><g><path d="M 1287.53125 742.230469 L 1300.558594 725.933594 L 1300.558594 709.871094 L 1274.679688 742.230469 L 1287.53125 742.230469" fill="#8fd8cf"/></g><g><path d="M 1300.558594 669.226562 L 1247.941406 735 C 1248.78125 738.601562 1251.601562 741.410156 1255.128906 742.074219 L 1300.558594 685.289062 L 1300.558594 669.226562" fill="#8fd8cf"/></g><g><path d="M 1093.410156 749.320312 L 1002.628906 749.320312 C 996.699219 749.320312 991.847656 744.46875 991.847656 738.539062 L 991.847656 647.757812 C 991.847656 641.828125 996.699219 636.976562 1002.628906 636.976562 L 1093.410156 636.976562 C 1099.339844 636.976562 1104.191406 641.828125 1104.191406 647.757812 L 1104.191406 738.539062 C 1104.191406 744.46875 1099.339844 749.320312 1093.410156 749.320312" fill="#39c9eb"/></g><g><path d="M 1002.628906 637.980469 C 997.234375 637.980469 992.847656 642.367188 992.847656 647.757812 L 992.847656 738.539062 C 992.847656 743.929688 997.234375 748.316406 1002.628906 748.316406 L 1093.410156 748.316406 C 1098.800781 748.316406 1103.191406 743.929688 1103.191406 738.539062 L 1103.191406 647.757812 C 1103.191406 642.367188 1098.800781 637.980469 1093.410156 637.980469 Z M 1093.410156 750.324219 L 1002.628906 750.324219 C 996.128906 750.324219 990.84375 745.039062 990.84375 738.539062 L 990.84375 647.757812 C 990.84375 641.261719 996.128906 635.972656 1002.628906 635.972656 L 1093.410156 635.972656 C 1099.910156 635.972656 1105.199219 641.261719 1105.199219 647.757812 L 1105.199219 738.539062 C 1105.199219 745.039062 1099.910156 750.324219 1093.410156 750.324219" fill="#dbf8fe"/></g><g><path d="M 1087.679688 742.230469 L 1008.359375 742.230469 C 1003.179688 742.230469 998.9375 737.988281 998.9375 732.808594 L 998.9375 653.488281 C 998.9375 648.308594 1003.179688 644.066406 1008.359375 644.066406 L 1087.679688 644.066406 C 1092.859375 644.066406 1097.101562 648.308594 1097.101562 653.488281 L 1097.101562 732.808594 C 1097.101562 737.988281 1092.859375 742.230469 1087.679688 742.230469" fill="#dbf8fe"/></g><g><path d="M 1074.300781 742.230469 L 1097.101562 713.726562 L 1097.101562 697.664062 L 1061.449219 742.230469 L 1074.300781 742.230469" fill="#8fd8cf"/></g><g><path d="M 1041.78125 742.230469 L 1097.101562 673.082031 L 1097.101562 657.019531 L 1028.929688 742.230469 L 1041.78125 742.230469" fill="#8fd8cf"/></g><g><path d="M 998.9375 671.976562 L 998.9375 688.039062 L 1034.121094 644.066406 L 1021.269531 644.066406 L 998.9375 671.976562" fill="#8fd8cf"/></g><g><path d="M 1218.710938 749.320312 L 1127.929688 749.320312 C 1122 749.320312 1117.148438 744.46875 1117.148438 738.539062 L 1117.148438 647.757812 C 1117.148438 641.828125 1122 636.976562 1127.929688 636.976562 L 1218.710938 636.976562 C 1224.640625 636.976562 1229.5 641.828125 1229.5 647.757812 L 1229.5 738.539062 C 1229.5 744.46875 1224.640625 749.320312 1218.710938 749.320312" fill="#39c9eb"/></g><g><path d="M 1127.929688 637.980469 C 1122.539062 637.980469 1118.148438 642.367188 1118.148438 647.757812 L 1118.148438 738.539062 C 1118.148438 743.929688 1122.539062 748.316406 1127.929688 748.316406 L 1218.710938 748.316406 C 1224.101562 748.316406 1228.488281 743.929688 1228.488281 738.539062 L 1228.488281 647.757812 C 1228.488281 642.367188 1224.101562 637.980469 1218.710938 637.980469 Z M 1218.710938 750.324219 L 1127.929688 750.324219 C 1121.429688 750.324219 1116.148438 745.039062 1116.148438 738.539062 L 1116.148438 647.757812 C 1116.148438 641.261719 1121.429688 635.972656 1127.929688 635.972656 L 1218.710938 635.972656 C 1225.210938 635.972656 1230.5 641.261719 1230.5 647.757812 L 1230.5 738.539062 C 1230.5 745.039062 1225.210938 750.324219 1218.710938 750.324219" fill="#dbf8fe"/></g><g><path d="M 1212.980469 742.230469 L 1133.660156 742.230469 C 1128.480469 742.230469 1124.238281 737.988281 1124.238281 732.808594 L 1124.238281 653.488281 C 1124.238281 648.308594 1128.480469 644.066406 1133.660156 644.066406 L 1212.980469 644.066406 C 1218.160156 644.066406 1222.398438 648.308594 1222.398438 653.488281 L 1222.398438 732.808594 C 1222.398438 737.988281 1218.160156 742.230469 1212.980469 742.230469" fill="#dbf8fe"/></g><g><path d="M 1124.238281 677.289062 L 1124.238281 693.351562 L 1163.671875 644.066406 L 1150.820312 644.066406 L 1124.238281 677.289062" fill="#8fd8cf"/></g><g><path d="M 1124.238281 715.929688 L 1124.238281 731.992188 L 1194.589844 644.066406 L 1181.730469 644.066406 L 1124.238281 715.929688" fill="#8fd8cf"/></g><g><path d="M 1206.328125 742.230469 L 1222.398438 722.140625 L 1222.398438 706.078125 L 1193.480469 742.230469 L 1206.328125 742.230469" fill="#8fd8cf"/></g><g><path d="M 1883.433594 629.976562 L 1463.3125 629.976562 L 1463.3125 841.734375 L 1883.433594 841.734375 L 1883.433594 629.976562" fill="#db0706"/></g><g><path d="M 1463.320312 665.230469 L 1498.578125 629.972656 L 1491.160156 629.972656 L 1463.320312 657.808594 L 1463.320312 665.230469" fill="#a80909"/></g><g><path d="M 1463.320312 707.304688 L 1540.648438 629.972656 L 1533.230469 629.972656 L 1463.320312 699.882812 L 1463.320312 707.304688" fill="#a80909"/></g><g><path d="M 1463.320312 749.375 L 1582.730469 629.972656 L 1575.300781 629.972656 L 1463.320312 741.953125 L 1463.320312 749.375" fill="#a80909"/></g><g><path d="M 1463.320312 791.445312 L 1624.800781 629.972656 L 1617.378906 629.972656 L 1463.320312 784.027344 L 1463.320312 791.445312" fill="#a80909"/></g><g><path d="M 1463.316406 833.519531 L 1666.871094 629.972656 L 1659.445312 629.972656 L 1463.316406 826.097656 L 1463.316406 833.519531" fill="#a80909"/></g><g><path d="M 1497.179688 841.730469 L 1708.941406 629.972656 L 1701.519531 629.972656 L 1489.757812 841.730469 L 1497.179688 841.730469" fill="#a80909"/></g><g><path d="M 1539.246094 841.730469 L 1751.011719 629.972656 L 1743.589844 629.972656 L 1531.835938 841.730469 L 1539.246094 841.730469" fill="#a80909"/></g><g><path d="M 1581.335938 841.730469 L 1793.097656 629.96875 L 1785.671875 629.96875 L 1573.921875 841.730469 L 1581.335938 841.730469" fill="#a80909"/></g><g><path d="M 1623.988281 841.734375 L 1835.753906 629.976562 L 1828.332031 629.976562 L 1616.578125 841.734375 L 1623.988281 841.734375" fill="#a80909"/></g><g><path d="M 1666.070312 841.734375 L 1877.824219 629.976562 L 1870.40625 629.976562 L 1658.648438 841.734375 L 1666.070312 841.734375" fill="#a80909"/></g><g><path d="M 1708.132812 841.734375 L 1883.433594 666.4375 L 1883.433594 659.015625 L 1700.714844 841.734375 L 1708.132812 841.734375" fill="#a80909"/></g><g><path d="M 1750.21875 841.734375 L 1883.433594 708.511719 L 1883.433594 701.089844 L 1742.789062 841.734375 L 1750.21875 841.734375" fill="#a80909"/></g><g><path d="M 1792.289062 841.734375 L 1883.433594 750.582031 L 1883.433594 743.160156 L 1784.859375 841.734375 L 1792.289062 841.734375" fill="#a80909"/></g><g><path d="M 1834.347656 841.734375 L 1883.433594 792.65625 L 1883.433594 785.234375 L 1826.929688 841.734375 L 1834.347656 841.734375" fill="#a80909"/></g><g><path d="M 1876.417969 841.734375 L 1883.433594 834.726562 L 1883.433594 827.304688 L 1869 841.734375 L 1876.417969 841.734375" fill="#a80909"/></g><g><path d="M 1609.5 928.496094 C 1609.5 966.824219 1578.421875 997.894531 1540.101562 997.894531 C 1501.769531 997.894531 1470.699219 966.824219 1470.699219 928.496094 C 1470.699219 890.171875 1501.769531 859.101562 1540.101562 859.101562 C 1578.421875 859.101562 1609.5 890.171875 1609.5 928.496094" fill="#21385e"/></g><g><path d="M 1601.328125 928.496094 C 1601.328125 962.316406 1573.921875 989.730469 1540.101562 989.730469 C 1506.28125 989.730469 1478.871094 962.316406 1478.871094 928.496094 C 1478.871094 894.679688 1506.28125 867.265625 1540.101562 867.265625 C 1573.921875 867.265625 1601.328125 894.679688 1601.328125 928.496094" fill="#33517c"/></g><g><path d="M 1540.101562 961.144531 C 1522.101562 961.144531 1507.449219 946.5 1507.449219 928.5 C 1507.449219 910.496094 1522.101562 895.851562 1540.101562 895.851562 C 1558.101562 895.851562 1572.75 910.496094 1572.75 928.5 C 1572.75 946.5 1558.101562 961.144531 1540.101562 961.144531" fill="#bababa"/></g><g><path d="M 1540.101562 951.519531 C 1527.398438 951.519531 1517.078125 941.191406 1517.078125 928.496094 C 1517.078125 915.804688 1527.398438 905.476562 1540.101562 905.476562 C 1552.789062 905.476562 1563.121094 915.804688 1563.121094 928.496094 C 1563.121094 941.191406 1552.789062 951.519531 1540.101562 951.519531" fill="#21385e"/></g><g><path d="M 1871.078125 928.496094 C 1871.078125 966.824219 1840.003906 997.890625 1801.6875 997.890625 C 1763.359375 997.890625 1732.285156 966.824219 1732.285156 928.496094 C 1732.285156 890.171875 1763.359375 859.101562 1801.6875 859.101562 C 1840.003906 859.101562 1871.078125 890.171875 1871.078125 928.496094" fill="#21385e"/></g><g><path d="M 1862.910156 928.496094 C 1862.910156 962.316406 1835.492188 989.726562 1801.6875 989.726562 C 1767.855469 989.726562 1740.4375 962.316406 1740.4375 928.496094 C 1740.4375 894.679688 1767.855469 867.265625 1801.6875 867.265625 C 1835.492188 867.265625 1862.910156 894.679688 1862.910156 928.496094" fill="#33517c"/></g><g><path d="M 1801.683594 961.144531 C 1783.667969 961.144531 1769.027344 946.5 1769.027344 928.5 C 1769.027344 910.496094 1783.667969 895.851562 1801.683594 895.851562 C 1819.679688 895.851562 1834.320312 910.496094 1834.320312 928.5 C 1834.320312 946.5 1819.679688 961.144531 1801.683594 961.144531" fill="#bababa"/></g><g><path d="M 1801.6875 951.519531 C 1788.980469 951.519531 1778.660156 941.191406 1778.660156 928.496094 C 1778.660156 915.804688 1788.980469 905.476562 1801.6875 905.476562 C 1814.371094 905.476562 1824.703125 915.804688 1824.703125 928.496094 C 1824.703125 941.191406 1814.371094 951.519531 1801.6875 951.519531" fill="#21385e"/></g><g><path d="M 1875.152344 570.695312 L 1467.1875 570.695312 C 1459.027344 570.695312 1451.8125 576.019531 1449.425781 583.816406 L 1436.449219 625.976562 L 1905.894531 625.976562 L 1892.914062 583.816406 C 1890.519531 576.019531 1883.316406 570.695312 1875.152344 570.695312" fill="#7f0071"/></g><g><path d="M 1885.035156 846.078125 L 1456.621094 846.078125 C 1448.34375 846.078125 1441.640625 852.789062 1441.640625 861.0625 L 1441.640625 887.222656 C 1441.640625 895.5 1448.34375 902.207031 1456.621094 902.207031 L 1475.867188 902.207031 C 1486.226562 876.921875 1511.078125 859.105469 1540.09375 859.105469 C 1569.117188 859.105469 1593.957031 876.921875 1604.320312 902.207031 L 1737.453125 902.207031 C 1747.800781 876.921875 1772.652344 859.105469 1801.679688 859.105469 C 1830.691406 859.105469 1855.53125 876.921875 1865.894531 902.207031 L 1885.035156 902.207031 C 1893.3125 902.207031 1900.027344 895.5 1900.027344 887.222656 L 1900.027344 861.0625 C 1900.027344 852.789062 1893.3125 846.078125 1885.035156 846.078125" fill="#9bba16"/></g><g><path d="M 1651.839844 748.648438 L 1504.359375 748.648438 C 1498.617188 748.648438 1493.925781 743.832031 1493.925781 737.945312 L 1493.925781 647.84375 C 1493.925781 641.957031 1498.617188 637.140625 1504.359375 637.140625 L 1651.839844 637.140625 C 1657.582031 637.140625 1662.273438 641.957031 1662.273438 647.84375 L 1662.273438 737.945312 C 1662.273438 743.832031 1657.582031 748.648438 1651.839844 748.648438" fill="#db0706"/></g><g><path d="M 1504.355469 638.144531 C 1499.148438 638.144531 1494.925781 642.496094 1494.925781 647.84375 L 1494.925781 737.945312 C 1494.925781 743.292969 1499.148438 747.644531 1504.355469 747.644531 L 1651.84375 747.644531 C 1657.050781 747.644531 1661.273438 743.292969 1661.273438 737.945312 L 1661.273438 647.84375 C 1661.273438 642.496094 1657.050781 638.144531 1651.84375 638.144531 Z M 1651.84375 749.652344 L 1504.355469 749.652344 C 1498.058594 749.652344 1492.925781 744.398438 1492.925781 737.945312 L 1492.925781 647.84375 C 1492.925781 641.390625 1498.058594 636.140625 1504.355469 636.140625 L 1651.84375 636.140625 C 1658.152344 636.140625 1663.285156 641.390625 1663.285156 647.84375 L 1663.285156 737.945312 C 1663.285156 744.398438 1658.152344 749.652344 1651.84375 749.652344" fill="#dbf8fe"/></g><g><path d="M 1646.132812 743.03125 L 1510.046875 743.03125 C 1504.753906 743.03125 1500.429688 738.703125 1500.429688 733.410156 L 1500.429688 652.390625 C 1500.429688 647.097656 1504.753906 642.765625 1510.046875 642.765625 L 1646.132812 642.765625 C 1651.425781 642.765625 1655.753906 647.097656 1655.753906 652.390625 L 1655.753906 733.410156 C 1655.753906 738.703125 1651.425781 743.03125 1646.132812 743.03125" fill="#dbf8fe"/></g><g><path d="M 1500.429688 693.566406 L 1500.429688 709.628906 L 1553.921875 642.765625 L 1541.070312 642.765625 L 1500.429688 693.566406" fill="#8fd8cf"/></g><g><path d="M 1500.429688 733.46875 C 1500.460938 737.390625 1502.859375 740.773438 1506.261719 742.246094 L 1585.851562 642.765625 L 1573 642.765625 L 1500.429688 733.46875" fill="#8fd8cf"/></g><g><path d="M 1626.558594 743.03125 L 1655.753906 706.546875 L 1655.753906 690.484375 L 1613.710938 743.03125 L 1626.558594 743.03125" fill="#8fd8cf"/></g><g><path d="M 1693.5625 636.964844 L 1842.3125 636.964844 C 1848.109375 636.964844 1852.835938 641.792969 1852.835938 647.691406 L 1852.835938 737.984375 C 1852.835938 743.882812 1848.109375 748.710938 1842.3125 748.710938 L 1693.5625 748.710938 C 1687.777344 748.710938 1683.035156 743.882812 1683.035156 737.984375 L 1683.035156 647.691406 C 1683.035156 641.792969 1687.777344 636.964844 1693.5625 636.964844" fill="#db0706"/></g><g><path d="M 1693.5625 637.96875 C 1688.308594 637.96875 1684.03125 642.332031 1684.03125 647.691406 L 1684.03125 737.984375 C 1684.03125 743.347656 1688.308594 747.707031 1693.5625 747.707031 L 1842.316406 747.707031 C 1847.570312 747.707031 1851.835938 743.347656 1851.835938 737.984375 L 1851.835938 647.691406 C 1851.835938 642.332031 1847.570312 637.96875 1842.316406 637.96875 Z M 1842.316406 749.714844 L 1693.5625 749.714844 C 1687.207031 749.714844 1682.042969 744.453125 1682.042969 737.984375 L 1682.042969 647.691406 C 1682.042969 641.222656 1687.207031 635.960938 1693.5625 635.960938 L 1842.316406 635.960938 C 1848.671875 635.960938 1853.847656 641.222656 1853.847656 647.691406 L 1853.847656 737.984375 C 1853.847656 744.453125 1848.671875 749.714844 1842.316406 749.714844" fill="#dbf8fe"/></g><g><path d="M 1699.902344 642.703125 L 1835.992188 642.703125 C 1841.292969 642.703125 1845.617188 647.03125 1845.617188 652.328125 L 1845.617188 733.34375 C 1845.617188 738.636719 1841.292969 742.96875 1835.992188 742.96875 L 1699.902344 742.96875 C 1694.617188 742.96875 1690.289062 738.636719 1690.289062 733.34375 L 1690.289062 652.328125 C 1690.289062 647.03125 1694.617188 642.703125 1699.902344 642.703125" fill="#dbf8fe"/></g><g><path d="M 1845.617188 692.164062 L 1845.617188 676.101562 L 1792.128906 742.96875 L 1804.980469 742.96875 L 1845.617188 692.164062" fill="#8fd8cf"/></g><g><path d="M 1845.617188 652.261719 C 1845.582031 648.339844 1843.183594 644.957031 1839.785156 643.484375 L 1760.195312 742.96875 L 1773.046875 742.96875 L 1845.617188 652.261719" fill="#8fd8cf"/></g><g><path d="M 1719.464844 642.707031 L 1690.273438 679.191406 L 1690.273438 695.253906 L 1732.316406 642.707031 L 1719.464844 642.707031" fill="#8fd8cf"/></g><g><path d="M 2445.699219 629.972656 L 2025.582031 629.972656 L 2025.582031 841.730469 L 2445.699219 841.730469 L 2445.699219 629.972656" fill="#fa8c01"/></g><g><path d="M 2025.578125 665.230469 L 2060.839844 629.972656 L 2053.421875 629.972656 L 2025.578125 657.808594 L 2025.578125 665.230469" fill="#ff7300"/></g><g><path d="M 2025.582031 707.304688 L 2102.910156 629.972656 L 2095.492188 629.972656 L 2025.582031 699.882812 L 2025.582031 707.304688" fill="#ff7300"/></g><g><path d="M 2025.585938 749.375 L 2144.980469 629.972656 L 2137.558594 629.972656 L 2025.585938 741.953125 L 2025.585938 749.375" fill="#ff7300"/></g><g><path d="M 2025.585938 791.445312 L 2187.050781 629.972656 L 2179.632812 629.972656 L 2025.585938 784.023438 L 2025.585938 791.445312" fill="#ff7300"/></g><g><path d="M 2025.574219 833.523438 L 2229.121094 629.976562 L 2221.695312 629.976562 L 2025.574219 826.101562 L 2025.574219 833.523438" fill="#ff7300"/></g><g><path d="M 2059.429688 841.734375 L 2271.191406 629.976562 L 2263.765625 629.976562 L 2052.015625 841.734375 L 2059.429688 841.734375" fill="#ff7300"/></g><g><path d="M 2101.507812 841.734375 L 2313.261719 629.976562 L 2305.839844 629.976562 L 2094.085938 841.734375 L 2101.507812 841.734375" fill="#ff7300"/></g><g><path d="M 2143.570312 841.734375 L 2355.332031 629.976562 L 2347.90625 629.976562 L 2136.15625 841.734375 L 2143.570312 841.734375" fill="#ff7300"/></g><g><path d="M 2186.261719 841.730469 L 2398.007812 629.976562 L 2390.59375 629.976562 L 2178.832031 841.730469 L 2186.261719 841.730469" fill="#ff7300"/></g><g><path d="M 2228.328125 841.730469 L 2440.09375 629.972656 L 2432.667969 629.972656 L 2220.917969 841.730469 L 2228.328125 841.730469" fill="#ff7300"/></g><g><path d="M 2270.40625 841.730469 L 2445.699219 666.433594 L 2445.699219 659.011719 L 2262.980469 841.730469 L 2270.40625 841.730469" fill="#ff7300"/></g><g><path d="M 2312.476562 841.730469 L 2445.699219 708.507812 L 2445.699219 701.085938 L 2305.050781 841.730469 L 2312.476562 841.730469" fill="#ff7300"/></g><g><path d="M 2354.535156 841.730469 L 2445.699219 750.582031 L 2445.699219 743.160156 L 2347.121094 841.730469 L 2354.535156 841.730469" fill="#ff7300"/></g><g><path d="M 2396.621094 841.730469 L 2445.699219 792.652344 L 2445.699219 785.230469 L 2389.195312 841.730469 L 2396.621094 841.730469" fill="#ff7300"/></g><g><path d="M 2438.695312 841.730469 L 2445.699219 834.722656 L 2445.699219 827.304688 L 2431.265625 841.730469 L 2438.695312 841.730469" fill="#ff7300"/></g><g><path d="M 2172.316406 928.496094 C 2172.316406 966.824219 2141.25 997.894531 2102.921875 997.894531 C 2064.582031 997.894531 2033.515625 966.824219 2033.515625 928.496094 C 2033.515625 890.167969 2064.582031 859.101562 2102.921875 859.101562 C 2141.25 859.101562 2172.316406 890.167969 2172.316406 928.496094" fill="#21385e"/></g><g><path d="M 2164.132812 928.5 C 2164.132812 962.316406 2136.730469 989.730469 2102.902344 989.730469 C 2069.085938 989.730469 2041.683594 962.316406 2041.683594 928.5 C 2041.683594 894.683594 2069.085938 867.269531 2102.902344 867.269531 C 2136.730469 867.269531 2164.132812 894.683594 2164.132812 928.5" fill="#33517c"/></g><g><path d="M 2102.910156 961.144531 C 2084.910156 961.144531 2070.261719 946.5 2070.261719 928.5 C 2070.261719 910.496094 2084.910156 895.851562 2102.910156 895.851562 C 2120.914062 895.851562 2135.5625 910.496094 2135.5625 928.5 C 2135.5625 946.5 2120.914062 961.144531 2102.910156 961.144531" fill="#bababa"/></g><g><path d="M 2102.90625 951.519531 C 2090.21875 951.519531 2079.886719 941.191406 2079.886719 928.5 C 2079.886719 915.804688 2090.21875 905.476562 2102.90625 905.476562 C 2115.597656 905.476562 2125.925781 915.804688 2125.925781 928.5 C 2125.925781 941.191406 2115.597656 951.519531 2102.90625 951.519531" fill="#21385e"/></g><g><path d="M 2432.824219 928.496094 C 2432.824219 966.824219 2401.75 997.894531 2363.421875 997.894531 C 2325.09375 997.894531 2294.019531 966.824219 2294.019531 928.496094 C 2294.019531 890.171875 2325.09375 859.101562 2363.421875 859.101562 C 2401.75 859.101562 2432.824219 890.171875 2432.824219 928.496094" fill="#21385e"/></g><g><path d="M 2424.65625 928.496094 C 2424.65625 962.3125 2397.242188 989.726562 2363.429688 989.726562 C 2329.605469 989.726562 2302.191406 962.3125 2302.191406 928.496094 C 2302.191406 894.679688 2329.605469 867.265625 2363.429688 867.265625 C 2397.242188 867.265625 2424.65625 894.679688 2424.65625 928.496094" fill="#33517c"/></g><g><path d="M 2363.417969 961.148438 C 2345.410156 961.148438 2330.769531 946.5 2330.769531 928.5 C 2330.769531 910.496094 2345.410156 895.851562 2363.417969 895.851562 C 2381.410156 895.851562 2396.066406 910.496094 2396.066406 928.5 C 2396.066406 946.5 2381.410156 961.148438 2363.417969 961.148438" fill="#bababa"/></g><g><path d="M 2363.417969 951.519531 C 2350.726562 951.519531 2340.390625 941.195312 2340.390625 928.5 C 2340.390625 915.808594 2350.726562 905.476562 2363.417969 905.476562 C 2376.097656 905.476562 2386.433594 915.808594 2386.433594 928.5 C 2386.433594 941.195312 2376.097656 951.519531 2363.417969 951.519531" fill="#21385e"/></g><g><path d="M 2437.421875 570.695312 L 2029.4375 570.695312 C 2021.289062 570.695312 2014.066406 576.015625 2011.675781 583.816406 L 1998.699219 625.976562 L 2468.144531 625.976562 L 2455.167969 583.816406 C 2452.777344 576.015625 2445.570312 570.695312 2437.421875 570.695312" fill="#db0706"/></g><g><path d="M 2447.292969 846.078125 L 2018.871094 846.078125 C 2010.59375 846.078125 2003.886719 852.789062 2003.886719 861.0625 L 2003.886719 887.222656 C 2003.886719 895.5 2010.59375 902.207031 2018.871094 902.207031 L 2038.675781 902.207031 C 2042.058594 893.957031 2046.984375 886.507812 2053.101562 880.207031 C 2053.191406 880.109375 2053.28125 880.007812 2053.375 879.914062 C 2053.765625 879.507812 2054.175781 879.113281 2054.582031 878.71875 C 2054.882812 878.417969 2055.203125 878.121094 2055.519531 877.828125 C 2055.972656 877.398438 2056.441406 876.972656 2056.910156 876.554688 C 2056.921875 876.542969 2056.9375 876.53125 2056.953125 876.519531 C 2069.203125 865.6875 2085.277344 859.101562 2102.90625 859.101562 C 2131.925781 859.101562 2156.773438 876.917969 2167.136719 902.207031 L 2299.195312 902.207031 C 2309.542969 876.917969 2334.390625 859.101562 2363.425781 859.101562 C 2392.441406 859.101562 2417.277344 876.917969 2427.65625 902.207031 L 2447.292969 902.207031 C 2455.570312 902.207031 2462.277344 895.5 2462.277344 887.222656 L 2462.277344 861.0625 C 2462.277344 852.789062 2455.570312 846.078125 2447.292969 846.078125" fill="#9bba16"/></g><g><path d="M 2402.976562 749.132812 L 2068.316406 749.132812 C 2062.839844 749.132812 2058.355469 744.273438 2058.355469 738.339844 L 2058.355469 647.460938 C 2058.355469 641.527344 2062.839844 636.667969 2068.316406 636.667969 L 2402.976562 636.667969 C 2408.453125 636.667969 2412.9375 641.527344 2412.9375 647.460938 L 2412.9375 738.339844 C 2412.9375 744.273438 2408.453125 749.132812 2402.976562 749.132812" fill="#fa8c01"/></g><g><path d="M 2068.324219 637.671875 C 2063.378906 637.671875 2059.351562 642.066406 2059.351562 647.464844 L 2059.351562 738.339844 C 2059.351562 743.738281 2063.378906 748.132812 2068.324219 748.132812 L 2402.957031 748.132812 C 2407.90625 748.132812 2411.917969 743.738281 2411.917969 738.339844 L 2411.917969 647.464844 C 2411.917969 642.066406 2407.90625 637.671875 2402.957031 637.671875 Z M 2402.957031 750.136719 L 2068.324219 750.136719 C 2062.269531 750.136719 2057.351562 744.84375 2057.351562 738.339844 L 2057.351562 647.464844 C 2057.351562 640.957031 2062.269531 635.664062 2068.324219 635.664062 L 2402.957031 635.664062 C 2409.015625 635.664062 2413.933594 640.957031 2413.933594 647.464844 L 2413.933594 738.339844 C 2413.933594 744.84375 2409.015625 750.136719 2402.957031 750.136719" fill="#dbf8fe"/></g><g><path d="M 2397.246094 743.039062 L 2074.03125 743.039062 C 2068.730469 743.039062 2064.390625 738.707031 2064.390625 733.414062 L 2064.390625 652.394531 C 2064.390625 647.101562 2068.730469 642.773438 2074.03125 642.773438 L 2397.246094 642.773438 C 2402.546875 642.773438 2406.875 647.101562 2406.875 652.394531 L 2406.875 733.414062 C 2406.875 738.707031 2402.546875 743.039062 2397.246094 743.039062" fill="#dbf8fe"/></g><g><path d="M 2077.753906 743.035156 L 2090.605469 743.035156 L 2170.816406 642.765625 L 2157.964844 642.765625 L 2077.753906 743.035156" fill="#8fd8cf"/></g><g><path d="M 2064.40625 713.652344 L 2064.40625 729.714844 L 2133.964844 642.769531 L 2121.105469 642.769531 L 2064.40625 713.652344" fill="#8fd8cf"/></g><g><path d="M 2294.941406 743.039062 L 2307.789062 743.039062 L 2388.015625 642.769531 L 2375.167969 642.769531 L 2294.941406 743.039062" fill="#8fd8cf"/></g><g><path d="M 2329.691406 743.039062 L 2342.539062 743.039062 L 2406.875 662.640625 L 2406.875 652.394531 C 2406.875 650.796875 2406.476562 649.285156 2405.78125 647.953125 L 2329.691406 743.039062" fill="#8fd8cf"/></g></g></svg>